<svg width="180" height="62" viewBox="0 0 180 62" fill="none" xmlns="http://www.w3.org/2000/svg">
<path d="M58.5684 47.3973H60.3189L63.1592 39.1905L65.9996 47.3973H67.7501L71.7794 35.8947H69.6492L66.8914 44.3626L64.051 35.8621H62.3336L59.4932 44.3626L56.7354 35.8947H54.5391L58.5684 47.3973ZM73.9361 47.3158H82.5893V45.521H75.9673V42.4536H81.7636V40.6589H75.9673V37.6894H82.5068V35.8947H73.9361V47.3158ZM85.0719 47.3158H90.4224C92.9985 47.3158 94.6994 46.2226 94.6994 44.1831C94.6994 42.6005 93.7581 41.8337 92.404 41.3768C93.2627 40.9363 94.0554 40.2021 94.0554 38.8315C94.0554 38.0321 93.7912 37.4121 93.2792 36.9063C92.6187 36.2537 91.5783 35.8947 90.2572 35.8947H85.0719V47.3158ZM87.0701 40.7079V37.6731H89.993C91.2976 37.6731 92.0242 38.2279 92.0242 39.1252C92.0242 40.2021 91.149 40.7079 89.8444 40.7079H87.0701ZM87.0701 45.5373V42.4047H90.2903C91.8921 42.4047 92.6682 42.9758 92.6682 43.9384C92.6682 44.9989 91.826 45.5373 90.4389 45.5373H87.0701ZM97.062 47.3158H99.0932V42.5026H104.609V47.3158H106.64V35.8947H104.609V40.6426H99.0932V35.8947H97.062V47.3158ZM115.197 47.5115C118.747 47.5115 121.257 44.8194 121.257 41.6052C121.257 38.3584 118.78 35.6989 115.23 35.6989C111.679 35.6989 109.169 38.391 109.169 41.6052C109.169 44.8521 111.646 47.5115 115.197 47.5115ZM115.23 45.6679C112.934 45.6679 111.3 43.8242 111.3 41.6052C111.3 39.3537 112.901 37.5426 115.197 37.5426C117.492 37.5426 119.127 39.3863 119.127 41.6052C119.127 43.8568 117.525 45.6679 115.23 45.6679ZM127.83 47.4789C130.258 47.4789 131.959 46.2063 131.959 44.0689C131.959 42.1436 130.687 41.2789 128.243 40.6915C126.03 40.1694 125.502 39.7779 125.502 38.8968C125.502 38.1136 126.196 37.51 127.385 37.51C128.441 37.51 129.482 37.9179 130.522 38.6847L131.612 37.1673C130.44 36.2373 129.102 35.7315 127.418 35.7315C125.122 35.7315 123.471 37.0858 123.471 39.0437C123.471 41.181 124.858 41.8989 127.319 42.47C129.465 42.9758 129.928 43.4163 129.928 44.2321C129.928 45.1294 129.135 45.7005 127.88 45.7005C126.443 45.7005 125.337 45.1621 124.23 44.2158L123.008 45.6515C124.396 46.8752 126.063 47.4789 127.83 47.4789ZM137.019 47.3158H139.066V37.7547H142.732V35.8947H133.353V37.7547H137.019V47.3158ZM145.075 47.3158H147.106V35.8947H145.075V47.3158ZM150.273 47.3158H152.271V39.1905L158.645 47.3158H160.346V35.8947H158.348V43.7915L152.155 35.8947H150.273V47.3158ZM168.874 47.5115C170.922 47.5115 172.557 46.6958 173.696 45.7331V40.9363H168.775V42.6821H171.731V44.8194C171.021 45.3415 170.03 45.6842 168.94 45.6842C166.579 45.6842 165.01 43.9547 165.01 41.6052C165.01 39.3863 166.628 37.5426 168.759 37.5426C170.228 37.5426 171.104 38.0158 171.995 38.7663L173.283 37.2489C172.094 36.2536 170.856 35.6989 168.841 35.6989C165.357 35.6989 162.88 38.4073 162.88 41.6052C162.88 44.9663 165.258 47.5115 168.874 47.5115Z" fill="#0B1129"/>
<path d="M55.5244 28.8245H67.9273V26.2521H58.4358V21.8555H66.7439V19.283H58.4358V15.0268H67.809V12.4543H55.5244V28.8245ZM71.4855 28.8245H74.3495V17.1783L83.4861 28.8245H85.924V12.4543H83.06V23.7731L74.1839 12.4543H71.4855V28.8245ZM95.7574 28.9414H98.3138L105.202 12.4543H102.054L97.0829 25.036L92.0886 12.4543H88.8696L95.7574 28.9414ZM108.312 28.8245H111.223V12.4543H108.312V28.8245ZM121.562 29.0584C125.041 29.0584 127.479 27.2343 127.479 24.1707C127.479 21.4112 125.657 20.1717 122.154 19.3298C118.982 18.5815 118.224 18.0202 118.224 16.7574C118.224 15.6348 119.219 14.7695 120.923 14.7695C122.438 14.7695 123.929 15.3542 125.42 16.4533L126.982 14.2784C125.302 12.9454 123.384 12.2205 120.97 12.2205C117.68 12.2205 115.313 14.1615 115.313 16.9678C115.313 20.0314 117.301 21.0604 120.828 21.8789C123.905 22.6038 124.568 23.2353 124.568 24.4046C124.568 25.6908 123.432 26.5093 121.633 26.5093C119.574 26.5093 117.988 25.7376 116.402 24.3812L114.65 26.4391C116.639 28.1931 119.029 29.0584 121.562 29.0584ZM131.173 28.8245H134.084V12.4543H131.173V28.8245ZM146.529 29.1051C151.618 29.1051 155.216 25.2465 155.216 20.6394C155.216 15.9856 151.665 12.1737 146.576 12.1737C141.487 12.1737 137.89 16.0324 137.89 20.6394C137.89 25.2932 141.44 29.1051 146.529 29.1051ZM146.576 26.4625C143.286 26.4625 140.943 23.8199 140.943 20.6394C140.943 17.4122 143.239 14.8163 146.529 14.8163C149.819 14.8163 152.162 17.4589 152.162 20.6394C152.162 23.8667 149.866 26.4625 146.576 26.4625ZM158.838 28.8245H161.702V17.1783L170.838 28.8245H173.276V12.4543H170.412V23.7731L161.536 12.4543H158.838V28.8245Z" fill="#0B1129"/>
<path d="M41.2222 28.2137C40.571 29.5905 39.8526 30.9412 39.0788 32.2637C39.3033 32.6619 39.5278 33.0618 39.756 33.4858C40.9113 35.6801 42.1222 38.2188 43.0537 41.1635C43.507 42.6377 43.8891 44.215 44.0497 45.9086C44.1921 47.5897 44.1848 49.4421 43.3815 51.2641C42.9777 52.1629 42.3294 53.0247 41.4673 53.6546C41.372 53.7227 41.3001 53.7866 41.1854 53.8589L40.8099 54.0761C40.5516 54.2347 40.3126 54.3179 40.0627 54.4257C39.5635 54.6237 39.045 54.7471 38.5222 54.8336C36.4186 55.1338 34.3687 54.6917 32.4569 54.0386C29.4268 52.9591 26.6318 51.3082 24.0218 49.3665C21.4119 51.3087 18.6174 52.9591 15.587 54.0386C13.6744 54.6927 11.6253 55.1338 9.52137 54.8336C8.99899 54.7466 8.4798 54.6237 7.98086 54.4257C7.73128 54.3173 7.49194 54.2341 7.23361 54.0761L6.85842 53.8589C6.74283 53.7866 6.67193 53.7226 6.57648 53.6546C5.71424 53.0242 5.0665 52.1629 4.66234 51.2641C3.85858 49.442 3.85075 47.5896 3.99409 45.9086C4.15528 44.2154 4.53674 42.6377 4.98977 41.1635C5.92121 38.2188 7.132 35.6802 8.28741 33.4858C8.51558 33.0618 8.73983 32.6619 8.96497 32.2637C8.19103 30.9412 7.47273 29.5905 6.82116 28.2137C5.06611 24.4837 3.73021 20.5677 3.36808 16.518C3.20927 14.5031 3.2972 12.4092 4.11533 10.4458C4.52703 9.47538 5.16385 8.56001 5.99871 7.88884L6.15477 7.76331L6.23271 7.70022L6.27163 7.66939C6.27521 7.66525 6.38266 7.59037 6.35431 7.61217L6.63923 7.43662C6.80189 7.3248 7.08262 7.19204 7.33154 7.07479C7.83345 6.84979 8.30701 6.7271 8.79961 6.63268C10.7689 6.31175 12.5663 6.76772 14.1599 7.32937C15.7602 7.90934 17.1937 8.67384 18.5084 9.48175C20.6253 10.8054 22.4353 12.2395 24.0226 13.6213C25.6102 12.2395 27.4198 10.8047 29.5367 9.48175C30.8515 8.67324 32.2852 7.90934 33.8853 7.32937C35.4789 6.76778 37.2764 6.31273 39.2455 6.63268C39.738 6.7271 40.2119 6.84974 40.7135 7.07479C40.9628 7.19215 41.2436 7.3248 41.4059 7.43662L41.6907 7.61217C41.6624 7.59037 41.7699 7.66525 41.774 7.66939L41.8128 7.70022L41.8906 7.76331L42.0463 7.88884C42.8817 8.56012 43.5179 9.47478 43.9297 10.4458C44.7482 12.4092 44.8357 14.5031 44.6769 16.518C44.3134 20.5677 42.9776 24.4837 41.2222 28.2137ZM21.4003 47.2695C18.46 44.7452 15.7834 41.8674 13.3777 38.7896C11.8269 36.7738 10.3867 34.6686 9.0967 32.487C8.90987 32.855 8.72337 33.2205 8.53693 33.6108C7.48539 35.8376 6.42659 38.4336 5.75717 41.3706C5.42695 42.835 5.181 44.3839 5.15384 45.9691C5.15146 47.541 5.36152 49.2003 6.11629 50.532C6.8609 51.8698 8.19609 52.6558 9.75505 52.7246C11.3208 52.8145 13.0119 52.297 14.6332 51.5967C16.9989 50.541 19.2513 49.0126 21.4003 47.2695ZM38.9472 32.4869C37.6572 34.6685 36.2169 36.7737 34.6662 38.7895C32.2602 41.8673 29.5836 44.7458 26.6433 47.2694C28.7922 49.0126 31.0449 50.5409 33.4107 51.596C35.032 52.2962 36.7221 52.8144 38.2886 52.7239C39.8472 52.6558 41.1829 51.8692 41.9272 50.5313C42.6824 49.2002 42.8923 47.5396 42.8901 45.9684C42.8629 44.3833 42.6172 42.8343 42.2863 41.3698C41.617 38.433 40.5582 35.8375 39.5067 33.6101C39.3202 33.2198 39.133 32.8542 38.9472 32.4869ZM33.1999 23.4524C33.1999 23.4524 33.5084 23.8549 34.0866 24.611C34.651 25.3767 35.4757 26.5034 36.4608 27.9833C36.6267 28.2303 36.8012 28.5026 36.9739 28.7695C37.3788 28.0765 37.779 27.381 38.1557 26.6786C39.9413 23.2661 41.4557 19.7241 42.0516 16.2028C42.3221 14.4599 42.4035 12.6966 41.9242 11.2062C41.6882 10.4671 41.3139 9.81524 40.7973 9.30956L40.7006 9.21368L40.6531 9.16544L40.6288 9.14129C40.6126 9.12655 40.6947 9.18774 40.6433 9.1501L40.3754 8.94952C40.1821 8.79121 40.0566 8.74112 39.9148 8.65274C39.6233 8.48474 39.2544 8.34448 38.8977 8.24196C37.4207 7.84446 35.7612 8.05673 34.2401 8.44977C32.7105 8.87284 31.2715 9.49719 29.935 10.1821C27.7915 11.2883 25.9257 12.58 24.2931 13.8591C24.575 14.1073 24.8527 14.3545 25.121 14.5977C26.9434 16.2827 28.4428 17.8385 29.6265 19.1646C30.8132 20.4883 31.6994 21.5673 32.2993 22.3056C32.8861 23.0528 33.1999 23.4524 33.1999 23.4524C33.1999 23.4524 32.8825 23.0557 32.2885 22.312C31.6765 21.5845 30.7975 20.498 29.5776 19.2072C28.3625 17.9131 26.8274 16.3937 24.9335 14.8095C24.6399 14.5649 24.3332 14.318 24.0218 14.0703C23.7103 14.3174 23.4037 14.5649 23.1094 14.8089C21.2161 16.3931 19.6808 17.9125 18.4657 19.2066C17.2455 20.498 16.3666 21.5845 15.7544 22.3114C15.1604 23.0551 14.8433 23.4514 14.8433 23.4514C14.8433 23.4514 15.1568 23.0527 15.7445 22.3039C16.3448 21.5659 17.2305 20.4868 18.4173 19.1632C19.601 17.8378 21.1004 16.2813 22.9228 14.5963C23.1909 14.3523 23.4685 14.106 23.7503 13.8577C22.118 12.5788 20.2524 11.287 18.109 10.1809C16.7726 9.49659 15.3335 8.87164 13.8039 8.44858C12.2824 8.05564 10.6231 7.84397 9.14629 8.24077C8.78949 8.34328 8.41974 8.48355 8.12888 8.65144C7.9873 8.74041 7.86174 8.7905 7.66831 8.94795L7.40068 9.14874C7.34932 9.18703 7.43167 9.12525 7.41482 9.13998L7.39093 9.16408L7.34327 9.21232L7.24671 9.30787C6.73005 9.81399 6.35541 10.4655 6.11938 11.2048C5.64037 12.6953 5.72189 14.4586 5.992 16.2015C6.58776 19.7228 8.10229 23.2649 9.88776 26.6773C10.2644 27.3797 10.665 28.0751 11.0697 28.7682C11.2423 28.5007 11.4177 28.229 11.5827 27.9819C12.5681 26.5021 13.3927 25.3753 13.9569 24.6093C14.5354 23.8535 14.8439 23.4506 14.8439 23.4506C14.8439 23.4506 14.5394 23.8566 13.9674 24.6175C13.4148 25.392 12.5837 26.5135 11.6366 28.017C11.4691 28.2809 11.2937 28.5703 11.1193 28.8566C12.6664 31.4976 14.4033 34.0714 16.309 36.5202C18.6605 39.5722 21.2582 42.4251 24.0219 44.9983C26.7859 42.4251 29.3834 39.5722 31.735 36.5208C33.6402 34.0719 35.3774 31.4982 36.9245 28.8572C36.75 28.5703 36.575 28.2809 36.4072 28.0176C35.4607 26.5145 34.6289 25.3926 34.0765 24.6182C33.5043 23.858 33.1999 23.4524 33.1999 23.4524Z" fill="#274190"/>
<path fill-rule="evenodd" clip-rule="evenodd" d="M12.6602 26.3772C12.6602 20.2295 17.7233 15.228 23.9446 15.228C30.1658 15.228 35.229 20.2295 35.229 26.3772C35.229 32.5248 30.1658 37.5263 23.9446 37.5263C17.7233 37.5263 12.6602 32.5248 12.6602 26.3772ZM18.8364 27.3907H14.8155C15.2014 30.7794 17.4351 33.6106 20.529 34.8349C19.5271 32.8974 18.95 30.1516 18.8364 27.3907ZM14.8155 25.3636H18.8364C18.9499 22.6027 19.5271 19.8569 20.5289 17.9194C17.4351 19.1437 15.2013 21.9749 14.8155 25.3636ZM20.9081 27.3907C21.1164 32.359 22.7701 35.4991 23.9446 35.4991C25.119 35.4991 26.7728 32.359 26.9811 27.3907H20.9081ZM23.9446 17.2552C22.7701 17.2552 21.1164 20.3953 20.9081 25.3636H26.981C26.7728 20.3953 25.119 17.2552 23.9446 17.2552ZM29.0528 27.3907C28.9393 30.1516 28.362 32.8974 27.3603 34.8349C30.4541 33.6106 32.6877 30.7794 33.0736 27.3907H29.0528ZM27.3602 17.9194C28.362 19.8569 28.9391 22.6027 29.0528 25.3636H33.0735C32.6877 21.9749 30.454 19.1437 27.3602 17.9194Z" fill="#274190"/>
</svg>
