<svg width="48" height="48" viewBox="0 0 48 48" fill="none" xmlns="http://www.w3.org/2000/svg">
<g clip-path="url(#clip0)">
<path d="M43.7146 38.5638V4.28564L42.4067 4.3953C37.1613 4.82889 32.0163 6.0828 27.1597 8.11182L24.8574 9.06773V43.2103L26.534 42.5135C31.5597 40.4225 36.8809 39.1288 42.3054 38.6785L43.7146 38.5638Z" fill="white"/>
<path d="M48.0001 9.35327H45.4287V39.3533C45.4304 39.8003 45.0876 40.1736 44.6419 40.2104L42.4467 40.3904C41.8131 40.4427 41.1811 40.5076 40.5516 40.585C40.3474 40.6097 40.1444 40.6423 39.9414 40.6708C39.517 40.7273 39.0935 40.7846 38.6712 40.8516C38.4251 40.8909 38.1807 40.937 37.9354 40.9801C37.5575 41.0462 37.1787 41.1119 36.8016 41.1864C36.5442 41.2379 36.2872 41.2957 36.0248 41.3513C35.6657 41.4275 35.3066 41.5053 34.9501 41.5903C34.6826 41.6539 34.416 41.7213 34.1503 41.7891C33.8033 41.8749 33.458 41.9674 33.1131 42.0637C32.8449 42.1373 32.5766 42.2152 32.3092 42.2938C31.9664 42.3951 31.6286 42.4981 31.29 42.6061C31.0251 42.6919 30.7598 42.7777 30.4957 42.863C30.1567 42.9773 29.8193 43.0953 29.4833 43.2171C29.2263 43.3104 28.9689 43.4042 28.7061 43.5025C28.5884 43.5473 28.4717 43.595 28.3545 43.6407H48.0001V9.35327Z" fill="white"/>
<path d="M5.59403 4.3953L4.28613 4.28564V38.5663L5.80748 38.6957C11.2287 39.1489 16.5452 40.4505 21.5625 42.5528L23.1433 43.2103V9.06773L20.8435 8.11265C15.9865 6.08322 10.8407 4.82889 5.59403 4.3953V4.3953Z" fill="white"/>
<path d="M0 9.35327V43.639H19.6595C19.554 43.5975 19.4485 43.5532 19.3422 43.5138C19.097 43.4205 18.8496 43.3314 18.6027 43.2414C18.2545 43.115 17.9067 42.9919 17.5559 42.8743C17.3023 42.7885 17.0479 42.7053 16.793 42.6241C16.4452 42.5098 16.0961 42.4022 15.7467 42.3018C15.4893 42.2265 15.2323 42.1507 14.9753 42.0787C14.6229 41.9812 14.2697 41.8887 13.9156 41.7979C13.6586 41.7318 13.4012 41.6656 13.1384 41.6041C12.7793 41.5183 12.4181 41.4396 12.0573 41.3622C11.8004 41.3065 11.543 41.25 11.286 41.1986C10.9122 41.1249 10.5368 41.0588 10.1614 40.9931C9.91532 40.9499 9.66922 40.9073 9.42271 40.8633C9.00837 40.7976 8.59277 40.7419 8.17718 40.6859C7.96708 40.6578 7.75865 40.6243 7.54897 40.6005C6.92034 40.5243 6.29171 40.4594 5.66309 40.4059L3.35575 40.2104C2.91085 40.1723 2.56975 39.7994 2.57143 39.3533V9.35327H0Z" fill="white"/>
</g>
<defs>
<clipPath id="clip0">
<rect width="48" height="48" fill="white"/>
</clipPath>
</defs>
</svg>
