<svg width="48" height="48" viewBox="0 0 48 48" fill="none" xmlns="http://www.w3.org/2000/svg">
<path d="M11 31H16C16 33.7 19.425 36 23.5 36C27.575 36 31 33.7 31 31C31 28.25 28.4 27.25 22.9 25.925C17.6 24.6 11 22.95 11 16C11 11.525 14.675 7.725 19.75 6.45V1H27.25V6.45C32.325 7.725 36 11.525 36 16H31C31 13.3 27.575 11 23.5 11C19.425 11 16 13.3 16 16C16 18.75 18.6 19.75 24.1 21.075C29.4 22.4 36 24.05 36 31C36 35.475 32.325 39.275 27.25 40.55V46H19.75V40.55C14.675 39.275 11 35.475 11 31Z" fill="white"/>
</svg>
