<svg width="48" height="48" viewBox="0 0 48 48" fill="none" xmlns="http://www.w3.org/2000/svg">
<path d="M24 39C23.4696 39 22.9609 38.7893 22.5858 38.4142C22.2107 38.0391 22 37.5304 22 37C22 36.4696 22.2107 35.9609 22.5858 35.5858C22.9609 35.2107 23.4696 35 24 35C24.5304 35 25.0391 35.2107 25.4142 35.5858C25.7893 35.9609 26 36.4696 26 37C26 37.5304 25.7893 38.0391 25.4142 38.4142C25.0391 38.7893 24.5304 39 24 39ZM8 11H40V33H8V11ZM40 37C41.0609 37 42.0783 36.5786 42.8284 35.8284C43.5786 35.0783 44 34.0609 44 33V11C44 8.78 42.2 7 40 7H8C5.78 7 4 8.78 4 11V33C4 34.0609 4.42143 35.0783 5.17157 35.8284C5.92172 36.5786 6.93913 37 8 37H0C0 38.0609 0.421427 39.0783 1.17157 39.8284C1.92172 40.5786 2.93913 41 4 41H44C45.0609 41 46.0783 40.5786 46.8284 39.8284C47.5786 39.0783 48 38.0609 48 37H40Z" fill="white"/>
</svg>
