<svg width="48" height="48" viewBox="0 0 48 48" fill="none" xmlns="http://www.w3.org/2000/svg">
<path d="M34.028 28.6C34.212 27.082 34.35 25.564 34.35 24C34.35 22.436 34.212 20.918 34.028 19.4H41.802C42.17 20.872 42.4 22.413 42.4 24C42.4 25.587 42.17 27.128 41.802 28.6H34.028ZM29.957 41.388C31.337 38.835 32.395 36.075 33.131 33.2H39.916C37.708 36.995 34.189 39.939 29.957 41.388ZM29.382 28.6H18.618C18.388 27.082 18.25 25.564 18.25 24C18.25 22.436 18.388 20.895 18.618 19.4H29.382C29.589 20.895 29.75 22.436 29.75 24C29.75 25.564 29.589 27.082 29.382 28.6ZM24 42.308C22.091 39.548 20.55 36.489 19.607 33.2H28.393C27.45 36.489 25.909 39.548 24 42.308ZM14.8 14.8H8.084C10.269 10.982 13.811 8.038 18.02 6.612C16.64 9.165 15.605 11.925 14.8 14.8ZM8.084 33.2H14.8C15.605 36.075 16.64 38.835 18.02 41.388C13.811 39.939 10.269 36.995 8.084 33.2ZM6.198 28.6C5.83 27.128 5.6 25.587 5.6 24C5.6 22.413 5.83 20.872 6.198 19.4H13.972C13.788 20.918 13.65 22.436 13.65 24C13.65 25.564 13.788 27.082 13.972 28.6H6.198ZM24 5.669C25.909 8.429 27.45 11.511 28.393 14.8H19.607C20.55 11.511 22.091 8.429 24 5.669ZM39.916 14.8H33.131C32.395 11.925 31.337 9.165 29.957 6.612C34.189 8.061 37.708 10.982 39.916 14.8ZM24 1C11.281 1 1 11.35 1 24C1 30.1 3.42321 35.9501 7.73654 40.2635C9.87229 42.3992 12.4078 44.0934 15.1983 45.2492C17.9888 46.4051 20.9796 47 24 47C30.1 47 35.9501 44.5768 40.2635 40.2635C44.5768 35.9501 47 30.1 47 24C47 20.9796 46.4051 17.9888 45.2492 15.1983C44.0934 12.4078 42.3992 9.87229 40.2635 7.73654C38.1277 5.6008 35.5922 3.90663 32.8017 2.75077C30.0112 1.59491 27.0204 1 24 1V1Z" fill="white"/>
</svg>
