<svg width="24" height="24" viewBox="0 0 24 24" fill="none" xmlns="http://www.w3.org/2000/svg">
<path d="M21.3613 20.2168L16.6012 15.2662C17.8251 13.8113 18.4957 11.9807 18.4957 10.075C18.4957 5.62251 14.8732 2 10.4207 2C5.96821 2 2.3457 5.62251 2.3457 10.075C2.3457 14.5275 5.96821 18.15 10.4207 18.15C12.0922 18.15 13.6851 17.6458 15.047 16.6888L19.8432 21.677C20.0436 21.8852 20.3133 22 20.6022 22C20.8757 22 21.1352 21.8957 21.3321 21.7061C21.7506 21.3034 21.764 20.6357 21.3613 20.2168ZM10.4207 4.10652C13.7118 4.10652 16.3892 6.78391 16.3892 10.075C16.3892 13.3661 13.7118 16.0435 10.4207 16.0435C7.12961 16.0435 4.45222 13.3661 4.45222 10.075C4.45222 6.78391 7.12961 4.10652 10.4207 4.10652Z" fill="#CCCCCC"/>
</svg>
