<svg width="48" height="48" viewBox="0 0 48 48" fill="none" xmlns="http://www.w3.org/2000/svg">
<g clip-path="url(#clip0)">
<path d="M43.6364 0H4.36367C1.95699 0 0 1.95699 0 4.36367V10.9091C0 13.3157 1.95699 15.2728 4.36367 15.2728H43.6364C46.043 15.2728 48.0001 13.3158 48.0001 10.9091V4.36367C48 1.95699 46.043 0 43.6364 0ZM8.72725 9.81819C8.72725 10.4212 8.2393 10.9091 7.6363 10.9091C7.0333 10.9091 6.54546 10.4212 6.54546 9.81819V5.45452C6.54546 4.85152 7.0334 4.36357 7.6364 4.36357C8.2394 4.36357 8.72735 4.85152 8.72735 5.45452L8.72725 9.81819ZM13.0909 9.81819C13.0909 10.4212 12.603 10.9091 12 10.9091C11.397 10.9091 10.909 10.4212 10.909 9.81819V5.45452C10.909 4.85152 11.397 4.36357 12 4.36357C12.603 4.36357 13.0909 4.85152 13.0909 5.45452V9.81819ZM17.4546 9.81819C17.4546 10.4212 16.9666 10.9091 16.3636 10.9091C15.7606 10.9091 15.2727 10.4212 15.2727 9.81819V5.45452C15.2727 4.85152 15.7606 4.36357 16.3636 4.36357C16.9666 4.36357 17.4546 4.85152 17.4546 5.45452V9.81819ZM32.7273 9.81819C31.5246 9.81819 30.5455 8.83913 30.5455 7.6364C30.5455 6.43367 31.5246 5.45452 32.7273 5.45452C33.93 5.45452 34.9091 6.43357 34.9091 7.6363C34.9091 8.83903 33.93 9.81819 32.7273 9.81819ZM39.2728 9.81819C38.07 9.81819 37.091 8.83913 37.091 7.6364C37.091 6.43367 38.07 5.45452 39.2728 5.45452C40.4755 5.45452 41.4545 6.43357 41.4545 7.6363C41.4545 8.83903 40.4755 9.81819 39.2728 9.81819Z" fill="white"/>
<path d="M43.6364 16.3636H4.36367C1.95699 16.3636 0 18.3206 0 20.7273V27.2728C0 29.6794 1.95699 31.6365 4.36367 31.6365H43.6364C46.043 31.6365 48.0001 29.6795 48.0001 27.2728V20.7273C48 18.3206 46.043 16.3636 43.6364 16.3636ZM8.72724 26.1818C8.72724 26.7848 8.2393 27.2728 7.6363 27.2728C7.0333 27.2728 6.54546 26.7848 6.54546 26.1818V21.8182C6.54546 21.2152 7.0334 20.7272 7.6364 20.7272C8.2394 20.7272 8.72735 21.2152 8.72735 21.8182V26.1818H8.72724ZM13.0909 26.1818C13.0909 26.7848 12.603 27.2728 12 27.2728C11.397 27.2728 10.909 26.7848 10.909 26.1818V21.8182C10.909 21.2152 11.397 20.7272 12 20.7272C12.603 20.7272 13.0909 21.2152 13.0909 21.8182V26.1818ZM17.4546 26.1818C17.4546 26.7848 16.9666 27.2728 16.3636 27.2728C15.7606 27.2728 15.2727 26.7848 15.2727 26.1818V21.8182C15.2727 21.2152 15.7606 20.7272 16.3636 20.7272C16.9666 20.7272 17.4546 21.2152 17.4546 21.8182V26.1818ZM32.7273 26.1818C31.5246 26.1818 30.5455 25.2028 30.5455 24.0001C30.5455 22.7973 31.5246 21.8183 32.7273 21.8183C33.93 21.8183 34.9091 22.7973 34.9091 24.0001C34.9091 25.2028 33.93 26.1818 32.7273 26.1818ZM39.2728 26.1818C38.07 26.1818 37.091 25.2028 37.091 24.0001C37.091 22.7973 38.07 21.8183 39.2728 21.8183C40.4755 21.8183 41.4545 22.7973 41.4545 24.0001C41.4545 25.2028 40.4755 26.1818 39.2728 26.1818Z" fill="white"/>
<path d="M43.6364 32.7273H4.36367C1.95699 32.7273 0 34.6843 0 37.091V43.6364C0 46.043 1.95699 48.0001 4.36367 48.0001H43.6364C46.043 48.0001 48.0001 46.0431 48.0001 43.6364V37.091C48 34.6843 46.043 32.7273 43.6364 32.7273ZM8.72724 42.5455C8.72724 43.1485 8.2393 43.6364 7.6363 43.6364C7.0333 43.6364 6.54546 43.1485 6.54546 42.5455V38.1818C6.54546 37.5788 7.0334 37.0909 7.6364 37.0909C8.2394 37.0909 8.72735 37.5788 8.72735 38.1818V42.5455H8.72724ZM13.0909 42.5455C13.0909 43.1485 12.603 43.6364 12 43.6364C11.397 43.6364 10.909 43.1485 10.909 42.5455V38.1818C10.909 37.5788 11.397 37.0909 12 37.0909C12.603 37.0909 13.0909 37.5788 13.0909 38.1818V42.5455ZM17.4546 42.5455C17.4546 43.1485 16.9666 43.6364 16.3636 43.6364C15.7606 43.6364 15.2727 43.1485 15.2727 42.5455V38.1818C15.2727 37.5788 15.7606 37.0909 16.3636 37.0909C16.9666 37.0909 17.4546 37.5788 17.4546 38.1818V42.5455ZM32.7273 42.5455C31.5246 42.5455 30.5455 41.5664 30.5455 40.3637C30.5455 39.161 31.5246 38.1819 32.7273 38.1819C33.93 38.1819 34.9091 39.161 34.9091 40.3637C34.9091 41.5664 33.93 42.5455 32.7273 42.5455ZM39.2728 42.5455C38.07 42.5455 37.091 41.5664 37.091 40.3637C37.091 39.161 38.07 38.1819 39.2728 38.1819C40.4755 38.1819 41.4545 39.161 41.4545 40.3637C41.4545 41.5664 40.4755 42.5455 39.2728 42.5455Z" fill="white"/>
</g>
<defs>
<clipPath id="clip0">
<rect width="48" height="48" fill="white"/>
</clipPath>
</defs>
</svg>
