<svg width="48" height="48" viewBox="0 0 48 48" fill="none" xmlns="http://www.w3.org/2000/svg">
<path d="M46 22H36C35.4696 22 34.9609 22.2107 34.5858 22.5858C34.2107 22.9609 34 23.4696 34 24V42C34 42.5304 34.2107 43.0391 34.5858 43.4142C34.9609 43.7893 35.4696 44 36 44H46C46.5304 44 47.0391 43.7893 47.4142 43.4142C47.7893 43.0391 48 42.5304 48 42V24C48 23.4696 47.7893 22.9609 47.4142 22.5858C47.0391 22.2107 46.5304 22 46 22ZM46 40H36V26H46V40ZM40 4H4C1.78 4 0 5.78 0 8V32C0 33.0609 0.421427 34.0783 1.17157 34.8284C1.92172 35.5786 2.93913 36 4 36H18V40H14V44H30V40H26V36H30V32H4V8H40V18H44V8C44 5.78 42.2 4 40 4Z" fill="white"/>
</svg>
