<svg width="48" height="48" viewBox="0 0 48 48" fill="none" xmlns="http://www.w3.org/2000/svg">
<path d="M24 0C17.0213 0 11.3438 5.67759 11.3438 12.6562C11.3438 19.6349 17.0213 25.3125 24 25.3125C30.9787 25.3125 36.6562 19.6349 36.6562 12.6562C36.6562 5.67759 30.9787 0 24 0Z" fill="white"/>
<path d="M39.7468 33.5808C36.2818 30.0625 31.6883 28.125 26.8125 28.125H21.1875C16.3118 28.125 11.7182 30.0625 8.25319 33.5808C4.80516 37.0818 2.90625 41.7031 2.90625 46.5938C2.90625 47.3704 3.53587 48 4.3125 48H43.6875C44.4641 48 45.0938 47.3704 45.0938 46.5938C45.0938 41.7031 43.1948 37.0818 39.7468 33.5808Z" fill="white"/>
</svg>
