<svg width="48" height="48" viewBox="0 0 48 48" fill="none" xmlns="http://www.w3.org/2000/svg">
<path d="M5.27273 2C4.13953 2 3.05274 2.45303 2.25145 3.25944C1.45016 4.06585 1 5.15957 1 6.3V32.1C1 34.4865 2.92273 36.4 5.27273 36.4H20.2273V40.7H15.9545V45H33.0455V40.7H28.7727V36.4H43.7273C44.8605 36.4 45.9473 35.947 46.7485 35.1406C47.5498 34.3342 48 33.2404 48 32.1V6.3C48 5.15957 47.5498 4.06585 46.7485 3.25944C45.9473 2.45303 44.8605 2 43.7273 2H5.27273ZM5.27273 6.3H43.7273V32.1H5.27273V6.3ZM30.9091 8.45L23.4318 15.975L30.9091 23.5L33.9 20.49L29.4136 15.975L33.9 11.46L30.9091 8.45ZM18.0909 14.9L15.1 17.91L19.5864 22.425L15.1 26.94L18.0909 29.95L25.5682 22.425" fill="white"/>
</svg>
